<svg id="Réteg_1" data-name="Réteg 1" xmlns="http://www.w3.org/2000/svg" viewBox="0 0 1024 1024"><defs><style>.cls-1{fill:#504658;}.cls-2{fill:#fefefe;}</style></defs><title>shoppingAssistLogo</title><rect class="cls-1" width="1024" height="1024" rx="116.76"/><g id="shopping-cart"><path class="cls-2" d="M368,728.05a72,72,0,1,0,72,72A72.22,72.22,0,0,0,368,728.05ZM151.92,151.92v72h72L353.57,497.6,303.15,584c-3.6,10.8-7.2,25.2-7.2,36a72.23,72.23,0,0,0,72,72H800.06V620H382.37a7.74,7.74,0,0,1-7.2-7.2v-3.6L407.58,548H674c28.8,0,50.41-14.41,61.21-36L864.88,278c7.2-7.2,7.2-10.8,7.2-18,0-21.6-14.4-36-36-36H303.15l-32.4-72ZM728.05,728.05a72,72,0,1,0,72,72A72.22,72.22,0,0,0,728.05,728.05Z"/></g></svg>